<?xml version="1.0" encoding="UTF-8" standalone="no"?>
<!-- Created with Inkscape (http://www.inkscape.org/) -->

<svg
   xmlns:dc="http://purl.org/dc/elements/1.1/"
   xmlns:cc="http://creativecommons.org/ns#"
   xmlns:rdf="http://www.w3.org/1999/02/22-rdf-syntax-ns#"
   xmlns:svg="http://www.w3.org/2000/svg"
   xmlns="http://www.w3.org/2000/svg"
   xmlns:xlink="http://www.w3.org/1999/xlink"
   xmlns:sodipodi="http://sodipodi.sourceforge.net/DTD/sodipodi-0.dtd"
   xmlns:inkscape="http://www.inkscape.org/namespaces/inkscape"
   width="346.16718"
   height="262.98679"
   id="svg2"
   version="1.1"
   inkscape:version="0.48.4 r9939"
   sodipodi:docname="pinguino.svg"
   inkscape:export-filename="/home/yeison/Escritorio/logo.png"
   inkscape:export-xdpi="90.476517"
   inkscape:export-ydpi="90.476517">
  <defs
     id="defs4">
    <linearGradient
       id="linearGradient3111"
       inkscape:collect="always">
      <stop
         id="stop3113"
         offset="0"
         style="stop-color:#ffffff;stop-opacity:1;" />
      <stop
         id="stop3115"
         offset="1"
         style="stop-color:#000000;stop-opacity:1" />
    </linearGradient>
    <linearGradient
       inkscape:collect="always"
       id="linearGradient4035">
      <stop
         style="stop-color:#ffffff;stop-opacity:1;"
         offset="0"
         id="stop4037" />
      <stop
         style="stop-color:#000000;stop-opacity:1"
         offset="1"
         id="stop4039" />
    </linearGradient>
    <linearGradient
       id="linearGradient4003">
      <stop
         style="stop-color:#d40000;stop-opacity:1"
         offset="0"
         id="stop4005" />
      <stop
         style="stop-color:#000000;stop-opacity:0;"
         offset="1"
         id="stop4007" />
    </linearGradient>
    <radialGradient
       inkscape:collect="always"
       xlink:href="#linearGradient4035-3"
       id="radialGradient4041-2"
       cx="-392.52728"
       cy="-242.85182"
       fx="-392.52728"
       fy="-242.85182"
       r="5.625"
       gradientTransform="matrix(1.1016506,1.7807346,-1.8257089,1.2235834,-403.31116,749.3151)"
       gradientUnits="userSpaceOnUse" />
    <linearGradient
       inkscape:collect="always"
       id="linearGradient4035-3">
      <stop
         style="stop-color:#ffffff;stop-opacity:1;"
         offset="0"
         id="stop4037-8" />
      <stop
         style="stop-color:#000000;stop-opacity:1"
         offset="1"
         id="stop4039-0" />
    </linearGradient>
    <radialGradient
       inkscape:collect="always"
       xlink:href="#linearGradient4035"
       id="radialGradient3095"
       gradientUnits="userSpaceOnUse"
       gradientTransform="matrix(1.1016506,1.7807346,-1.8257089,1.2235834,-403.31116,749.3151)"
       cx="-392.52728"
       cy="-242.85182"
       fx="-392.52728"
       fy="-242.85182"
       r="5.625" />
    <radialGradient
       inkscape:collect="always"
       xlink:href="#linearGradient4035-3"
       id="radialGradient3097"
       gradientUnits="userSpaceOnUse"
       gradientTransform="matrix(1.1016506,1.7807346,-1.8257089,1.2235834,-403.31116,749.3151)"
       cx="-392.52728"
       cy="-242.85182"
       fx="-392.52728"
       fy="-242.85182"
       r="5.625" />
    <radialGradient
       inkscape:collect="always"
       xlink:href="#linearGradient3111"
       id="radialGradient3100"
       gradientUnits="userSpaceOnUse"
       gradientTransform="matrix(0.65247714,1.4410061,-1.4242313,0.64488184,-558.58919,-676.29195)"
       cx="814.27222"
       cy="-257.20679"
       fx="814.27222"
       fy="-257.20679"
       r="66.629425" />
  </defs>
  <sodipodi:namedview
     id="base"
     pagecolor="#ffffff"
     bordercolor="#666666"
     borderopacity="1.0"
     inkscape:pageopacity="0.0"
     inkscape:pageshadow="2"
     inkscape:zoom="1.2161866"
     inkscape:cx="245.82499"
     inkscape:cy="190.40647"
     inkscape:document-units="px"
     inkscape:current-layer="layer1"
     showgrid="false"
     fit-margin-top="0"
     fit-margin-left="0"
     fit-margin-right="0"
     fit-margin-bottom="0"
     inkscape:window-width="1317"
     inkscape:window-height="744"
     inkscape:window-x="49"
     inkscape:window-y="24"
     inkscape:window-maximized="1"
     showguides="true"
     inkscape:guide-bbox="true" />
  <metadata
     id="metadata7">
    <rdf:RDF>
      <cc:Work
         rdf:about="">
        <dc:format>image/svg+xml</dc:format>
        <dc:type
           rdf:resource="http://purl.org/dc/dcmitype/StillImage" />
        <dc:title></dc:title>
      </cc:Work>
    </rdf:RDF>
  </metadata>
  <g
     inkscape:label="Capa 1"
     inkscape:groupmode="layer"
     id="layer1"
     transform="translate(-219.27351,-209.15452)">
    <path
       inkscape:connector-curvature="0"
       id="path2985"
       d="m 504.4112,469.2312 c -0.3881,-1.8091 -0.8625,-3.5592 -1.0542,-3.889 -0.1917,-0.3298 -3.4012,-0.01 -7.1324,0.7132 -10.6569,2.0625 -14.2885,1.7631 -20.8931,-1.722 -9.1078,-4.8061 -22.7833,-12.0959 -23.8536,-12.7154 -0.5296,-0.3065 -12.6795,-0.6274 -26.9999,-0.7132 -24.8379,-0.1487 -40.4066,-1.3833 -56.5372,-4.4836 -39.2179,-7.5376 -65.8171,-19.4125 -85.6214,-38.2246 -16.7293,-15.8912 -28.0697,-40.8782 -30.0102,-66.123 -0.3649,-4.7475 -0.7517,-8.6318 -0.8594,-8.6318 -1.3341,0 -12.3772,4.4738 -16.9815,6.8795 -7.5682,3.9543 -13.0715,4.2155 -14.6749,0.6964 -0.8997,-1.9745 -0.694,-3.272 1.1089,-6.9963 1.2173,-2.5148 3.4115,-5.4932 4.8759,-6.6188 1.4644,-1.1256 3.6925,-2.8148 4.9512,-3.7537 1.2861,-0.9593 3.3989,-4.7734 4.8233,-8.7071 1.3941,-3.85 3.6865,-8.5109 5.0943,-10.3576 2.8817,-3.7799 10.669,-7.7762 17.0047,-8.7263 2.3235,-0.3484 4.6831,-1.1859 5.2434,-1.8611 2.1226,-2.5576 4.2374,-10.4823 6.0372,-22.6231 3.0484,-20.5645 7.9705,-31.1016 20.1071,-43.0451 13.0797,-12.8717 28.8563,-18.993 49.4014,-19.1676 14.3333,-0.1219 21.3416,1.4442 33.3419,7.4506 14.5649,7.2901 28.9881,24.3484 34.045,40.2649 1.0598,3.3359 2.4226,11.8577 3.0283,18.9371 1.0898,12.7381 4.1102,25.6871 6.6878,28.6715 0.733,0.8489 3.9348,2.0908 7.1149,2.76 11.4795,2.4154 17.3843,7.9725 20.6922,19.4742 1.4412,5.011 2.326,6.2548 6.6692,9.375 7.1745,5.1544 11.0675,13.8007 7.7206,17.1475 -2.1687,2.1687 -6.6942,1.2643 -16.0643,-3.2103 -5.0796,-2.4256 -10.6572,-4.7024 -12.3947,-5.0595 l -3.1591,-0.6491 -0.6952,7.8095 c -1.5915,17.8788 -5.8641,29.879 -15.0642,42.3094 -6.1982,8.3746 -7.6687,12.5052 -6.2756,17.6281 1.6448,6.0486 8.9351,12.4609 17.2826,15.2011 3.7852,1.2426 7.1925,1.9019 7.5719,1.4651 0.3794,-0.4369 3.7628,-4.8443 7.5186,-9.7943 3.7559,-4.95 7.3128,-9.3307 7.9044,-9.7349 1.5525,-1.0607 10.3608,-3.5546 15.3696,-4.3515 3.3067,-0.5262 4.6206,-1.3147 5.7141,-3.4293 4.0163,-7.7665 13.1252,-10.7924 21.0054,-6.9777 7.3464,3.5563 10.3786,10.3173 7.8996,17.6142 -3.4818,10.2485 -16.5476,13.5901 -24.8017,6.3429 l -3.3458,-2.9376 -7.3828,1.9363 c -7.8363,2.0553 -9.4523,3.3684 -13.9133,11.3056 l -2.2635,4.0276 9.8969,-0.6875 c 11.1512,-0.7747 38.1661,-5.2391 58.3971,-9.6506 7.425,-1.6191 14.7375,-3.045 16.25,-3.1687 3.135,-0.2565 3.3667,-1.4541 1.6216,-8.3842 -0.6206,-2.4647 -0.9435,-4.666 -0.7177,-4.8918 0.5526,-0.5526 37.3461,9.8782 37.3461,10.5874 0,0.307 -6.525,6.2261 -14.5,13.1536 l -14.5,12.5954 -1.5312,-4.8725 c -0.8422,-2.6798 -1.8358,-5.1771 -2.2082,-5.5494 -0.3723,-0.3723 -5.5333,0.4833 -11.4688,1.9014 -14.8302,3.5432 -36.5609,8.3478 -43.7918,9.6822 -8.979,1.657 -9.2163,1.7964 -6.4227,3.7735 6.1899,4.3808 13.3676,8.2156 15.3771,8.2156 1.2166,0 4.8093,-0.5216 7.9838,-1.1591 l 5.7718,-1.1592 -0.5421,-3.3408 c -0.2982,-1.8375 -0.4073,-3.3409 -0.2426,-3.3409 0.1648,0 5.8234,-1.125 12.5747,-2.5 6.7513,-1.375 12.615,-2.5 13.0305,-2.5 1.0774,0 1.7821,2.1667 4.0428,12.4303 1.0988,4.9884 2.2249,9.8186 2.5024,10.7339 0.4222,1.3923 -1.421,2.1004 -11.2856,4.3355 -6.4845,1.4692 -12.538,2.8756 -13.452,3.1252 -1.2197,0.3332 -1.8496,-0.4212 -2.3676,-2.8355 z"
       style="fill:#040404"
       sodipodi:nodetypes="sccssssssssssssssssssssssssssssscsssssssssssscsscssssssscssssssscsssssssss" />
    <path
       sodipodi:nodetypes="csscssssssssssscssssscc"
       style="fill:url(#radialGradient3100);fill-opacity:1"
       d="m 406.24448,368.16257 c 2.584,-8.9837 1.95318,-26.00222 -0.89392,-36.91112 -3.3181,-12.7138 -10.0893,-25.3684 -17.9504,-33.5475 l -6.7366,-7.0091 -3.2704,1.6315 c -1.7987,0.8973 -4.9309,1.859 -6.9603,2.137 -3.0833,0.4224 -3.9834,1.1288 -5.4745,4.2968 -3.5557,7.5539 -18.4425,20.9913 -23.2555,20.9913 -3.2634,0 -13.5005,-7.9218 -18.4858,-14.305 -3.7211,-4.7645 -4.8975,-5.6063 -8.6124,-6.1634 -2.4199,-0.3629 -6.4929,-2.1519 -9.3081,-4.0884 -2.753,-1.8937 -5.4147,-3.4432 -5.9149,-3.4432 -1.5933,0 -12.5176,12.4567 -15.8664,18.0921 -5.7242,9.6326 -8.5008,19.1679 -9.0382,31.0381 -0.2677,5.9153 0.027,13.5461 0.6636,17.2043 2.1772,12.5019 13.2103,28.6899 21.0722,37.4755 8.75779,8.19136 23.80164,20.51099 38.30992,26.17501 7.51213,2.93273 22.67539,10.90592 29.77003,10.53413 10.20321,-0.5347 21.68861,-4.70999 28.14607,-7.216 3.1461,-1.22094 -3.1266,-4.86941 -4.5664,-9.96433 -1.89978,-6.72262 0.83387,-11.54433 0.83387,-11.54433 1.92655,-4.54023 13.52221,-22.49134 17.53808,-35.38336 z"
       id="path3075"
       inkscape:connector-curvature="0" />
    <path
       inkscape:connector-curvature="0"
       id="path2985-0-7-3-8"
       d="m 351.0602,312.108 c 6.0204,-5.0303 13.2786,-14.4095 14.0201,-18.117 0.8253,-4.1266 -2.751,-7.5369 -10.1636,-9.6918 -13.0096,-3.782 -34.3649,0.3476 -36.0262,6.9666 -0.8822,3.5148 3.1584,10.1577 10.653,17.514 10.2422,10.0532 12.9641,10.4743 21.5167,3.3282 z"
       style="fill:#ffff00"
       sodipodi:nodetypes="ssssss" />
    <g
       id="g4077"
       transform="translate(-537.89452,515.5629)">
      <path
         sodipodi:nodetypes="sssccsssscsssssssss"
         style="fill:#ffffff;stroke:#000000;stroke-width:1;stroke-miterlimit:4;stroke-opacity:1;stroke-dasharray:none"
         d="m 855.76677,-221.96065 c -0.4647,-2.8635 -0.095,-3.8645 2.2162,-6.0068 3.0431,-2.8202 10.9732,-5.5571 16.1016,-5.5571 2.9286,0 3.3807,-0.3931 4.3129,-3.75 1.4832,-5.0408 1.0198,-8.9062 1.0518,-14 -9e-4,-5.8928 -4.3628,-15.4261 -9.1313,-19.9575 -3.43,-3.2594 -10.3303,-6.2925 -14.3155,-6.2925 -8.4206,0 -18.40242,8.0491 -21.80729,17.585 -2.18499,6.1194 -2.28834,17.4879 -0.2135,23.4868 3.31976,9.5984 12.40289,17.8769 19.65559,17.9143 2.5047,0.013 2.6492,-0.2193 2.1295,-3.4222 z m 58.8134,-3.1481 c 17.2547,-8.8122 17.5902,-31.3965 0.5922,-39.867 -9.3239,-4.6462 -21.8611,-2.8078 -28.3293,4.1541 -6.164,6.6346 -8.143,16.1729 -4.944,23.8292 1.3338,3.1922 1.7909,3.4687 5.75,3.4776 6.044,0.014 14.2558,4.0352 16.2959,7.9804 1.4597,2.8227 1.9497,3.0726 4.8151,2.4557 1.7545,-0.3777 4.3736,-1.2912 5.8201,-2.03 z"
         id="path2985-0-7-9"
         inkscape:connector-curvature="0" />
      <path
         transform="matrix(1.1654544,-0.16993115,0.14961885,1.0261446,1360.4178,-64.578169)"
         d="m -383,-240.5 c 0,5.24671 -2.5184,9.5 -5.625,9.5 -3.1066,0 -5.625,-4.25329 -5.625,-9.5 0,-5.24671 2.5184,-9.5 5.625,-9.5 3.1066,0 5.625,4.25329 5.625,9.5 z"
         sodipodi:ry="9.5"
         sodipodi:rx="5.625"
         sodipodi:cy="-240.5"
         sodipodi:cx="-388.625"
         id="path3143-7"
         style="fill:url(#radialGradient3095);fill-opacity:1;fill-rule:nonzero;stroke:none"
         sodipodi:type="arc" />
      <path
         transform="matrix(-0.95270761,-0.15220289,-0.13375129,0.83721058,484.76246,-102.49284)"
         d="m -383,-240.5 c 0,5.24671 -2.5184,9.5 -5.625,9.5 -3.1066,0 -5.625,-4.25329 -5.625,-9.5 0,-5.24671 2.5184,-9.5 5.625,-9.5 3.1066,0 5.625,4.25329 5.625,9.5 z"
         sodipodi:ry="9.5"
         sodipodi:rx="5.625"
         sodipodi:cy="-240.5"
         sodipodi:cx="-388.625"
         id="path3143-7-5"
         style="fill:url(#radialGradient3097);fill-opacity:1;fill-rule:nonzero;stroke:none"
         sodipodi:type="arc" />
    </g>
    <g
       id="g3033"
       transform="translate(-46.51304,-20.930871)" />
  </g>
</svg>
